<svg viewBox="0 0 1024 1024" version="1.1" xmlns="http://www.w3.org/2000/svg" width="200" height="200">


  <path
    d="M874.026667 149.973333a512 512 0 0 1 0 724.053334c-199.936 199.957333-524.117333 199.957333-724.053334 0-197.909333-197.866667-199.936-517.44-6.122666-717.845334l6.101333-6.229333c199.957333-199.936 524.138667-199.936 724.096 0zM512 85.333333A425.322667 425.322667 0 0 0 210.304 210.304c-166.613333 166.613333-166.613333 436.778667 0 603.392A425.322667 425.322667 0 0 0 512 938.666667l6.976-0.064a425.258667 425.258667 0 0 0 294.72-124.906667 426.666667 426.666667 0 0 0 0-603.392 425.258667 425.258667 0 0 0-294.72-124.906667L512 85.333333z"
    fill="#000"></path>
  <path
    d="M156.224 154.922667a50.474667 50.474667 0 0 1 69.376-2.517334l2.645333 2.517334 616.149334 620.821333a52.010667 52.010667 0 0 1 0 72.938667 50.474667 50.474667 0 0 1-69.354667 2.496l-2.666667-2.496L156.224 227.84a52.010667 52.010667 0 0 1 0-72.917333z"
    fill="#000"></path>

  <text fill="red" font-size="500" x="50" y="690" font-weight="600" font-family="MesloLGS NF">CSP</text>

</svg>